<svg width="519" height="519" viewBox="0 0 519 519" fill="none" xmlns="http://www.w3.org/2000/svg">
<rect width="519" height="519" rx="50" fill="#2E855A"/>
<path d="M460.647 89.3226L419.925 55.736C412.319 49.4629 402.704 46.0084 392.851 46.0084H365.478C329.978 45.4404 297.519 73.5954 292.996 108.814C292.995 108.813 284.682 166.199 284.682 166.199H179.666C113.859 166.199 60.3205 219.802 60.3205 285.689V358.332C60.3205 380.205 55.4302 402.242 46.1774 422.057C44.3782 425.91 44.6551 430.414 46.9114 434.018C49.1685 437.622 53.098 439.832 57.3453 439.888L76.3037 440.14C95.5174 440.334 113.693 432.965 127.362 419.404C152.75 394.379 148.381 367.125 148.573 334.955L157.877 338.782C162.779 340.799 165.947 345.531 165.947 350.837V426.244C165.947 428.672 166.652 431.047 167.976 433.082L190.249 467.311C192.558 470.859 196.502 473 200.732 473H223.627C240.202 472.389 240.204 448.559 223.627 447.947H207.513L190.97 422.524V401.618L227.728 373.443C233.569 368.965 238.648 363.651 242.858 357.743C249.014 358.773 253.726 364.13 253.726 370.582L253.785 426.282C253.792 428.701 254.498 431.066 255.819 433.092L278.092 467.257C280.403 470.8 284.343 472.937 288.569 472.937H311.465C328.039 472.324 328.042 448.495 311.465 447.883H295.344L278.797 422.502L278.766 411.988L321.242 374.461C342.254 355.586 348.15 332.696 346.799 305.297H389.1L388.225 324.104C387.904 331.014 393.239 336.878 400.141 337.2C400.34 337.209 400.537 337.214 400.733 337.214C407.375 337.213 412.909 331.981 413.221 325.269L414.705 293.353C414.863 289.932 413.618 286.597 411.258 284.121C408.896 281.644 405.627 280.243 402.207 280.243H376.575C380.493 274.115 383.237 267.105 384.456 259.487L384.475 259.359L397.924 169.479H439.279C457.809 169.479 472.886 154.384 472.886 135.831C472.495 118.228 476.145 102.158 460.647 89.3226ZM321.776 317.756C321.776 332.257 315.547 346.079 304.686 355.674L278.75 378.589V370.581C278.75 354.214 268.384 340.227 253.88 334.852C255.746 328.326 256.733 321.524 256.733 314.637V314.002C256.733 309.082 260.666 305.082 265.5 305.082H321.777V317.756H321.776ZM359.74 255.572C357.445 269.747 345.381 280.028 331.032 280.028H268.476C278.933 265.889 294.133 255.195 314.857 246.743C335.63 238.356 353.279 222.928 366.925 207.55L359.74 255.572ZM447.862 135.829C447.862 140.568 444.012 144.423 439.279 144.423H387.147C383.175 144.505 378.405 146.467 376.03 151.203C325.329 240.292 297.076 208.245 249.933 263.026C237.869 278.557 231.572 296.378 231.709 314.636C231.314 344.079 211.305 354.164 190.971 370.063V350.836C190.971 335.328 181.713 321.5 167.387 315.607L140.816 304.678C136.958 303.09 132.562 303.533 129.095 305.859C125.63 308.185 123.55 312.087 123.55 316.265V368.487C124.101 393.678 101.728 415.834 76.5932 415.087L75.9134 415.078C82.1133 396.844 85.3446 377.535 85.3446 358.331V285.688C85.3446 233.616 127.657 191.252 179.666 191.252H295.511C301.727 191.252 307.001 186.682 307.893 180.523L317.761 112.409C321.175 88.8379 341.69 71.0628 365.478 71.0628H392.851C396.914 71.0628 400.88 72.4876 404.016 75.0736L444.737 108.659C446.724 110.299 447.863 112.716 447.863 115.293V135.829H447.862Z" fill="white"/>
</svg>
